Coordinates
version=1
nRows=13
nColumns=22
inDegrees=yes

Units are S.I. units (second, meters, Newtons, ...)
If the header above contains a line with 'inDegrees', this indicates whether rotational values are in degrees (yes) or radians (no).

endheader
time	pelvis_tilt	pelvis_list	pelvis_rotation	pelvis_tx	pelvis_ty	pelvis_tz	hip_flexion_r	hip_adduction_r	hip_rotation_r	knee_angle_r	ankle_angle_r	subtalar_angle_r	hip_flexion_l	hip_adduction_l	hip_rotation_l	knee_angle_l	ankle_angle_l	subtalar_angle_l	lumbar_extension	lumbar_bending	lumbar_rotation
      4.06000000	     -1.05365593	     -2.01193891	     75.12022691	      0.21808716	      0.85078317	     -0.22250318	     27.67468225	     -7.85302041	      5.42050211	    -12.41124996	      3.08020746	     15.59817260	     -9.29675000	      0.84103734	     14.30252631	    -19.81961371	     25.07004268	      2.81167792	     -5.84911346	     -4.19324380	      6.97313205
      4.07000000	     -1.04375154	     -2.04561553	     75.56574122	      0.22350702	      0.85008888	     -0.22927241	     28.07689437	     -7.58904125	      5.45552782	    -14.11173135	      2.59056036	     14.80662860	     -9.80298701	      0.42133997	     14.72109434	    -19.79168362	     24.84664422	      3.10543229	     -5.75457709	     -3.98765875	      7.16859172
      4.08000000	     -0.98168383	     -2.07569170	     75.99721282	      0.22890201	      0.84961092	     -0.23607122	     28.49586167	     -7.29112311	      5.46576142	    -15.93273916	      2.18983834	     13.98926157	    -10.27729338	     -0.04526647	     15.08154526	    -19.83910347	     24.54212472	      3.43449487	     -5.68778447	     -3.71628228	      7.36378654
      4.09000000	     -0.88859172	     -2.08191830	     76.43029250	      0.23418434	      0.84938249	     -0.24289156	     28.89594364	     -6.99840472	      5.40669106	    -17.81552192	      1.97543631	     13.23980627	    -10.71284134	     -0.52247663	     15.41547610	    -19.99772407	     24.14666458	      3.77619976	     -5.67128577	     -3.40328166	      7.55139278
      4.10000000	     -0.75482558	     -2.07728428	     76.86526347	      0.23935262	      0.84941024	     -0.24973624	     29.23299617	     -6.69197223	      5.29962849	    -19.65204334	      1.95578478	     12.47033127	    -11.08990019	     -1.02476468	     15.69340625	    -20.27558540	     23.65177686	      4.16914947	     -5.69052840	     -3.03271927	      7.71554592
      4.11000000	     -0.60768902	     -2.05962999	     77.31721323	      0.24436398	      0.84968676	     -0.25658691	     29.47739667	     -6.40358552	      5.13499657	    -21.37132701	      2.13553909	     11.71918515	    -11.38512359	     -1.52142344	     15.93558756	    -20.69716004	     23.06492572	      4.61480132	     -5.74327798	     -2.63518980	      7.82653125
      4.12000000	     -0.45084858	     -2.04631657	     77.77412329	      0.24925721	      0.85018329	     -0.26343070	     29.61593565	     -6.11997891	      4.92339915	    -22.90305446	      2.47696080	     10.95161258	    -11.57045296	     -2.01273577	     16.11558523	    -21.27552820	     22.35919559	      5.14622708	     -5.80315556	     -2.21602375	      7.92152474
      4.13000000	     -0.31875865	     -2.04258720	     78.23847795	      0.25402373	      0.85085833	     -0.27023802	     29.65226638	     -5.87169663	      4.67558249	    -24.22065036	      2.95401612	     10.17622024	    -11.61684745	     -2.46314088	     16.23615565	    -22.02706275	     21.53691640	      5.78177573	     -5.85606468	     -1.81181999	      7.97329404
      4.14000000	     -0.23511243	     -2.04940264	     78.70842190	      0.25868655	      0.85166525	     -0.27698911	     29.59991570	     -5.67763211	      4.39536632	    -25.33133192	      3.53316190	      9.40321893	    -11.50621746	     -2.85026350	     16.28098058	    -22.96637734	     20.58767303	      6.53380440	     -5.89148476	     -1.45294055	      7.98183385
      4.15000000	     -0.21695305	     -2.06196244	     79.19059294	      0.26323903	      0.85257356	     -0.28365120	     29.47079146	     -5.56319774	      4.04903734	    -26.25472830	      4.19138786	      8.64940689	    -11.22179348	     -3.15449150	     16.26084080	    -24.11776226	     19.51509192	      7.40637113	     -5.91426569	     -1.16714231	      7.97107069
      4.16000000	     -0.27468614	     -2.08636294	     79.68778578	      0.26767732	      0.85354984	     -0.29019425	     29.27993643	     -5.53619799	      3.65956856	    -26.99935863	      4.88926891	      7.92574677	    -10.73804593	     -3.36680414	     16.17013595	    -25.50377507	     18.28600015	      8.40436259	     -5.91585540	     -0.96684559	      7.93405858
      4.17000000	     -0.40788887	     -2.10021627	     80.21035239	      0.27197368	      0.85458655	     -0.29657305	     29.03118674	     -5.60697292	      3.22221267	    -27.61418457	      5.59190243	      7.25552878	    -10.05748729	     -3.48502217	     16.00463032	    -27.15375179	     16.92490929	      9.51413463	     -5.92994782	     -0.85858661	      7.86196613
      4.18000000	     -0.56752438	     -2.11890579	     80.72081021	      0.27621237	      0.85566402	     -0.30285229	     28.71921101	     -5.70002850	      2.78041922	    -28.08335009	      6.35060602	      6.57645854	     -9.21311555	     -3.56834109	     15.73548561	    -29.00960951	     15.39087102	     10.87318596	     -5.93296205	     -0.79058767	      7.85656230
